<?xml version="1.0" encoding="UTF-8"?>
<svg xmlns="http://www.w3.org/2000/svg" version="1.1" viewBox="0 0 687.4 199.5">
  <defs>
    <style>
      .cls-1 {
        fill: #a7c555;
      }

      .cls-2 {
        fill: #21b26a;
      }

      .cls-3 {
        fill: #fff;
      }
    </style>
  </defs>
  <!-- Generator: Adobe Illustrator 28.6.0, SVG Export Plug-In . SVG Version: 1.2.0 Build 709)  -->
  <g>
    <g id="katman_5">
      <g>
        <path class="cls-3" d="M120.8,123.7l32.1-69.6c.3-.6.8-1.1,1.8-1.1h1c1,0,1.4.5,1.8,1.1l31.8,69.6c.6,1.3-.2,2.7-1.8,2.7h-9c-1.6,0-2.3-.6-3-2.1l-5.1-11.2h-30.9l-5.1,11.2c-.4,1-1.3,2.1-3,2.1h-9c-1.5,0-2.4-1.3-1.8-2.7ZM165.5,101.7l-10.3-22.7h-.3l-10.1,22.7h20.8Z"/>
        <path class="cls-3" d="M230.5,56c0-1,.8-2,2-2h29.6c12.4,0,22.5,9.9,22.5,22.2s-6.3,17.3-15.3,20.9l14.2,26.2c.7,1.3,0,3-1.8,3h-10.9c-.9,0-1.4-.5-1.7-.9l-13.7-27.4h-11.5v26.4c0,1-.9,2-2,2h-9.5c-1.1,0-2-.9-2-2V56ZM260.9,87c5.5,0,10.2-4.8,10.2-10.5s-4.8-10-10.2-10h-16.8v20.6h16.8Z"/>
        <path class="cls-3" d="M322.1,123.7l32.1-69.6c.3-.6.8-1.1,1.8-1.1h1c1,0,1.4.5,1.8,1.1l31.8,69.6c.6,1.3-.2,2.7-1.8,2.7h-9c-1.6,0-2.3-.6-3-2.1l-5.1-11.2h-30.9l-5.1,11.2c-.4,1-1.3,2.1-3,2.1h-9c-1.5,0-2.4-1.3-1.8-2.7ZM366.8,101.7l-10.3-22.7h-.3l-10.1,22.7h20.8Z"/>
        <path class="cls-3" d="M440.1,91.6l-23.6-34.5c-.8-1.3,0-3,1.7-3h10.5c.8,0,1.3.5,1.7.9l16.5,23.8,16.5-23.8c.3-.4.8-.9,1.7-.9h10.6c1.7,0,2.5,1.7,1.7,3l-23.9,34.4v33c0,1-.9,2-2,2h-9.5c-1.1,0-2-.9-2-2v-32.9Z"/>
        <path class="cls-3" d="M517.6,56c0-1,.9-2,2-2h9.8c1.1,0,2,.9,2,2v43.1c0,8.8,6,14.9,15,14.9s15.1-6.1,15.1-14.8v-43.2c0-1,.8-2,2-2h9.8c1,0,2,.9,2,2v43.8c0,15.7-12.5,27.6-28.8,27.6s-28.7-11.9-28.7-27.6v-43.8ZM526.2,39.7c0-4.2,3.2-7.4,7.4-7.4s7.5,3.2,7.5,7.4-3.3,7.5-7.5,7.5-7.4-3.3-7.4-7.5ZM551.7,39.7c0-4.2,3.2-7.4,7.4-7.4s7.5,3.2,7.5,7.4-3.3,7.5-7.5,7.5-7.4-3.3-7.4-7.5Z"/>
        <path class="cls-3" d="M637.6,113.9h26.4c1.1,0,2,.9,2,2v8.6c0,1-.8,2-2,2h-44.1c-1,0-2-.9-2-2s0-1.9.7-3.2l30.1-54.3v-.4h-25.8c-1,0-2-.9-2-2v-8.6c0-1,.9-2,2-2h43.2c1,0,2,.9,2,2s0,1.3-.9,3l-29.5,54.7v.2Z"/>
      </g>
      <g>
        <path class="cls-2" d="M75.9,99v-1.3c-5.5-2.3-14.9-6.4-14.9-25.2v-22.2c0-20.3-16.6-29.6-34.5-32.2-1.5-.2-2.4-1.7-2.4-3.4v-3.6c0-2.3,1.9-3.2,3.8-3.2,19.4,0,46.2,8.1,46.2,42.4v27.5c0,8.5,8.5,13.9,13,14.7,1.5.2,2.8,1.3,2.8,2.8v5.8c0,1.5-1.3,3-2.8,3.2-4.5.8-13,6.2-13,14.7v27.5c0,34.3-26.8,42.2-46.2,42.2s-3.8-1.3-3.8-3.2v-3.8c0-2.1.9-3,2.4-3.2,17.9-2.6,34.5-11.7,34.5-32v-22.2c0-18.8,9.4-23,14.9-25.2Z"/>
        <circle class="cls-1" cx="22.9" cy="64.7" r="12.6"/>
      </g>
    </g>
  </g>
</svg>